# xmcd
#
# Track frame offsets:
#	150
#	26200
#	51190
#	71985
#	94378
#	113115
#	143233
#	163570
#	177658
#	196868
#	215575
#	237438
#
# Disc length: 3519 seconds
#
# Revision: 1
# Processed by: cddbd v1.5.1PL0 Copyright (c) Steve Scherf et al.
# Submitted via: CDex 1.50Beta5
#
DISCID=ba0dbd0c
DTITLE=Various Artist - JAZZで聴くニューミュージック
DYEAR=1900
DGENRE=Jazz
TTITLE0=白い恋人達
TTITLE1=First love
TTITLE2=桜坂
TTITLE3=毎日がスペシャル
TTITLE4=I Love YOU
TTITLE5=少年時代
TTITLE6=未来予想図
TTITLE7=中央フリーウエイ
TTITLE8=YES-NO
TTITLE9=イブ
TTITLE10=Automatic
TTITLE11=TSUNAMI
EXTD=
EXTT0=
EXTT1=
EXTT2=
EXTT3=
EXTT4=
EXTT5=
EXTT6=
EXTT7=
EXTT8=
EXTT9=
EXTT10=
EXTT11=
PLAYORDER=
